<mxfile host="app.diagrams.net" modified="2023-07-27T17:50:20.362Z" agent="Mozilla/5.0 (Windows NT 10.0; Win64; x64) AppleWebKit/537.36 (KHTML, like Gecko) Chrome/115.0.0.0 Safari/537.36" version="21.6.2" etag="8uz4-OxdUtcn26Ucu59D" type="github">
  <diagram name="PÃ¡gina-1" id="ceotlwO-fkTwhtw2Noss">
    <mxGraphModel>
      <root>
        <mxCell id="0" />
        <mxCell id="1" parent="0" />
      </root>
    </mxGraphModel>
  </diagram>
</mxfile>
